<svg width="29" height="29" fill="none" xmlns="http://www.w3.org/2000/svg"><path d="M25.3 7.96a.837.837 0 00-.835-.785h-4.427V5.867c0-2.62-2.485-4.752-5.538-4.752-3.053 0-5.538 2.132-5.538 4.752v1.308H4.535a.837.837 0 00-.836.784L2.511 26.996a.84.84 0 00.835.889h22.308a.839.839 0 00.835-.89L25.301 7.96zM10.636 5.866c0-1.697 1.734-3.079 3.865-3.079 2.13 0 3.865 1.382 3.865 3.079v1.308h-7.73V5.867zm-1.673 2.98v1.818a.837.837 0 001.673 0V8.848h7.73v1.817a.837.837 0 001.673 0V8.848h3.641l.725 11.6H4.596l.725-11.6h3.641zM4.236 26.212l.29-4.647h19.948l.29 4.648H4.236z" fill="#9C9C42"/></svg>